<?xml version="1.0" standalone="no"?>
<!DOCTYPE svg PUBLIC "-//W3C//DTD SVG 20010904//EN"
 "http://www.w3.org/TR/2001/REC-SVG-20010904/DTD/svg10.dtd">
<svg version="1.0" xmlns="http://www.w3.org/2000/svg"
 width="500.000000pt" height="500.000000pt" viewBox="0 0 500.000000 500.000000"
 preserveAspectRatio="xMidYMid meet">
<metadata>
Created by potrace 1.11, written by Peter Selinger 2001-2013
</metadata>
<g transform="translate(0.000000,500.000000) scale(0.100000,-0.100000)"
fill="#000000" stroke="none">
<path d="M3799 4246 c-2 -2 -29 -7 -59 -10 -647 -75 -1342 -430 -1842 -942
-142 -146 -161 -168 -259 -299 -50 -66 -96 -127 -103 -135 -60 -75 -276 -484
-276 -522 0 -8 -4 -18 -9 -23 -15 -17 -63 -175 -57 -190 4 -10 12 -12 35 -5
47 13 306 5 401 -13 363 -69 724 -272 1210 -681 58 -49 85 -77 70 -72 -44 12
-53 14 -194 51 -76 19 -152 37 -170 40 -17 3 -42 7 -56 10 -14 3 -41 7 -60 10
-19 3 -46 7 -60 10 -98 18 -239 28 -385 29 -191 0 -345 -13 -500 -44 -27 -6
-59 -12 -70 -14 -69 -14 -278 -74 -330 -96 -11 -4 -63 -25 -115 -45 -90 -36
-281 -127 -363 -174 -146 -83 -177 -102 -177 -108 0 -2 3 -2 7 0 189 99 517
219 703 256 98 20 118 23 194 36 60 9 214 18 316 18 292 -1 569 -55 933 -180
117 -40 462 -170 512 -193 33 -15 205 -76 290 -103 313 -100 526 -122 795 -83
36 5 173 44 218 62 57 23 194 93 222 114 l25 19 -40 -9 c-40 -10 -328 -6 -395
4 -186 30 -378 84 -792 223 l-346 117 -45 136 c-40 118 -62 203 -72 274 -3 20
-11 81 -20 156 -6 45 -6 337 -1 370 2 14 7 54 11 90 9 91 14 124 31 210 8 41
16 85 18 97 3 12 14 57 26 100 77 280 153 480 275 723 86 172 125 240 241 415
51 77 133 191 184 254 50 62 89 115 87 117 -2 2 -6 2 -8 0z"/>
</g>
</svg>
