<?xml version="1.0" encoding="UTF-8" standalone="no"?>
<svg
   xmlns:dc="http://purl.org/dc/elements/1.1/"
   xmlns:cc="http://creativecommons.org/ns#"
   xmlns:rdf="http://www.w3.org/1999/02/22-rdf-syntax-ns#"
   xmlns:svg="http://www.w3.org/2000/svg"
   xmlns="http://www.w3.org/2000/svg"
   id="svg3676"
   version="1.1"
   viewBox="0 0 36.634742 8.5965772"
   height="32.491001"
   width="138.46201">
  <defs
     id="defs3670" />
  <metadata
     id="metadata3673">
    <rdf:RDF>
      <cc:Work
         rdf:about="">
        <dc:format>image/svg+xml</dc:format>
        <dc:type
           rdf:resource="http://purl.org/dc/dcmitype/StillImage" />
        <dc:title></dc:title>
      </cc:Work>
    </rdf:RDF>
  </metadata>
  <g
     transform="translate(0,-288.40342)"
     id="layer1">
    <rect
       y="288.40341"
       x="1.6060036e-06"
       height="8.5965853"
       width="36.634739"
       id="rect12"
       style="opacity:1;fill:#ffffff;fill-opacity:1;fill-rule:nonzero;stroke:none;stroke-width:1.99999988;stroke-linecap:square;stroke-linejoin:miter;stroke-miterlimit:4;stroke-dasharray:none;stroke-opacity:1;paint-order:stroke fill markers" />
    <g
       transform="matrix(0.3544243,0,0,0.3544243,-38.813701,51.051001)"
       id="g4354"
       style="display:inline;stroke-width:0.9500109">
      <path
         d="m 197.5559,689.2073 v -13.3141 h -2.3694 v -1.2382 l 4.3729,-0.3684 v 14.9207 z m -11.9682,-1.1121 c 1.0915,0 1.886,-0.5765 2.3834,-1.7293 0.4939,-1.1496 0.7426,-2.671 0.7426,-4.5542 0,-1.8864 -0.2487,-3.4044 -0.7426,-4.554 -0.4974,-1.153 -1.2919,-1.7295 -2.3834,-1.7295 -1.095,0 -1.8859,0.5765 -2.3798,1.7295 -0.494,1.1496 -0.7392,2.6676 -0.7392,4.554 0,1.8832 0.2452,3.4046 0.7392,4.5542 0.4939,1.1528 1.2848,1.7293 2.3798,1.7293 z m 0,1.4805 c -1.1225,0 -2.0828,-0.3548 -2.884,-1.0642 -0.8048,-0.7096 -1.399,-1.6681 -1.7823,-2.8791 -0.3835,-1.2075 -0.577,-2.4799 -0.577,-3.8207 0,-1.3338 0.1901,-2.6027 0.5735,-3.8102 0.3799,-1.2111 0.9741,-2.173 1.7858,-2.886 0.8081,-0.713 1.7684,-1.0678 2.884,-1.0678 1.1192,0 2.0793,0.3548 2.8876,1.0642 0.8049,0.7096 1.3988,1.6683 1.7789,2.8792 0.3833,1.2077 0.5733,2.48 0.5733,3.8206 0,1.3338 -0.19,2.5994 -0.5664,3.8037 -0.3764,1.2007 -0.9706,2.1626 -1.7755,2.8823 -0.8083,0.7198 -1.7719,1.078 -2.8979,1.078 z m -13.1045,-1.4805 c 1.0915,0 1.8859,-0.5765 2.3832,-1.7293 0.4941,-1.1496 0.7427,-2.671 0.7427,-4.5542 0,-1.8864 -0.2486,-3.4044 -0.7427,-4.554 -0.4973,-1.153 -1.2917,-1.7295 -2.3832,-1.7295 -1.0949,0 -1.8858,0.5765 -2.3799,1.7295 -0.4939,1.1496 -0.7391,2.6676 -0.7391,4.554 0,1.8832 0.2452,3.4046 0.7391,4.5542 0.4941,1.1528 1.285,1.7293 2.3799,1.7293 z m 0,1.4805 c -1.1225,0 -2.0829,-0.3548 -2.8842,-1.0642 -0.8048,-0.7096 -1.3988,-1.6681 -1.7823,-2.8791 -0.3833,-1.2075 -0.5767,-2.4799 -0.5767,-3.8207 0,-1.3338 0.19,-2.6027 0.5733,-3.8102 0.38,-1.2111 0.974,-2.173 1.7857,-2.886 0.8083,-0.713 1.7684,-1.0678 2.8842,-1.0678 1.1191,0 2.0793,0.3548 2.8874,1.0642 0.8049,0.7096 1.3991,1.6683 1.7789,2.8792 0.3835,1.2077 0.5733,2.48 0.5733,3.8206 0,1.3338 -0.1898,2.5994 -0.5664,3.8037 -0.3764,1.2007 -0.9706,2.1626 -1.7752,2.8823 -0.8083,0.7198 -1.772,1.078 -2.898,1.078 z m -16.0924,-10.6124 c 0,1.1053 0.2591,1.9889 0.7737,2.654 0.5182,0.6618 1.2228,0.9926 2.1208,0.9926 0.7358,0 1.4301,-0.2626 2.0794,-0.7878 0.6529,-0.5288 0.9774,-1.2281 0.9774,-2.1083 0,-0.7607 -0.145,-1.4974 -0.4317,-2.2138 -0.2866,-0.7164 -0.6529,-1.2247 -1.1018,-1.5282 -0.449,-0.3037 -0.9844,-0.4538 -1.6027,-0.4538 -0.8842,0 -1.575,0.3105 -2.0724,0.9279 -0.4939,0.6208 -0.7427,1.46 -0.7427,2.5174 z m -1.2122,10.152 v -1.6682 c 1.2675,0.4332 2.3487,0.6481 3.2397,0.6481 0.8221,0 1.5232,-0.2149 2.1036,-0.6447 0.5802,-0.4299 1.0328,-1.1291 1.361,-2.0979 0.328,-0.9688 0.4904,-2.0263 0.4904,-3.1723 -0.4457,0.5388 -0.829,0.9243 -1.1537,1.1494 -0.3247,0.2251 -0.6805,0.3991 -1.0674,0.5185 -0.3902,0.1195 -0.7978,0.1809 -1.2295,0.1809 -0.829,0 -1.5992,-0.2183 -2.3038,-0.6549 -0.7045,-0.4366 -1.2505,-1.0063 -1.6407,-1.7125 -0.3869,-0.7063 -0.5804,-1.4941 -0.5804,-2.3572 0,-0.9143 0.2142,-1.7909 0.6426,-2.6335 0.4283,-0.8425 0.9982,-1.4906 1.7096,-1.9444 0.7117,-0.4536 1.5717,-0.6789 2.5769,-0.6789 1.7855,0 3.1084,0.7062 3.9651,2.1219 0.8566,1.4156 1.2848,3.118 1.2848,5.1033 0,1.511 -0.2555,2.937 -0.7631,4.2708 -0.5113,1.3373 -1.2194,2.34 -2.1312,3.0189 -0.9086,0.6755 -2.0621,1.0131 -3.4577,1.0131 -0.784,0 -1.7993,-0.1534 -3.0462,-0.4604 z"
         style="fill:#000200;fill-rule:evenodd;stroke:#000200;stroke-width:0.20520236;stroke-linecap:butt;stroke-linejoin:miter;stroke-dasharray:none"
         id="path344" />
      <path
         transform="matrix(-0.74651576,0,0,0.74651576,449.97421,34.605248)"
         id="path346"
         d="m 318.05859,851.17578 v 31.58789 h 11.25196 v -31.58789 z m 3.76172,4.71875 c 0.73479,-0.0734 1.49056,0.18921 1.9961,0.82813 0.41844,0.53097 0.66309,1.2938 0.53906,2.00586 -0.0138,0.19746 -0.36672,0.68116 -0.0137,0.52343 0.21975,-0.0494 0.43846,-0.0987 0.6582,-0.14843 v -2.88477 h 1.38672 v 4.21289 c -1.26178,0.27152 -2.52338,0.5431 -3.78516,0.81445 -0.0551,-0.48472 -0.11087,-0.97035 -0.16601,-1.45507 0.37395,-0.22256 0.66307,-0.6628 0.61914,-1.16602 0.0208,-0.57431 -0.43031,-1.05494 -0.92188,-1.04883 -0.53209,-0.0773 -1.17307,0.22761 -1.28711,0.88281 -0.11325,0.50747 0.18592,1.04117 0.63086,1.14844 0.15847,0.0846 0.41229,0.0402 0.53711,0.13086 -0.046,0.5417 -0.0569,1.08788 -0.13672,1.625 -0.65924,-0.0243 -1.34456,-0.25978 -1.78515,-0.85351 -0.70038,-0.93352 -0.73187,-2.41974 -0.13868,-3.42969 0.41899,-0.70313 1.1324,-1.11218 1.86719,-1.18555 z m -2.17773,6.90039 h 6.85351 c 1e-5,0.39251 0,0.78523 0,1.17774 -0.79864,0.41573 -1.32544,1.29389 -1.66797,2.18945 h -1.41992 c 0.19141,-0.6041 0.38267,-1.22276 0.73633,-1.73047 h -4.50195 z m 3.30469,4.49805 c 1.21591,0 2.08574,0.28261 2.60937,0.84375 0.44299,0.47072 0.66406,1.12419 0.66406,1.96289 0,0.83642 -0.21902,1.48864 -0.65625,1.95508 -0.52952,0.56516 -1.39671,0.84765 -2.60351,0.84765 -1.22918,0 -2.08556,-0.25682 -2.56446,-0.77148 -0.48023,-0.51493 -0.71875,-1.19282 -0.71875,-2.03125 0,-0.8387 0.21929,-1.4906 0.65625,-1.95703 0.53114,-0.56516 1.40206,-0.84961 2.61329,-0.84961 z m 0,1.73242 c -0.7519,0 -1.28509,0.0574 -1.59961,0.16992 -0.24474,0.0864 -0.41378,0.21033 -0.50782,0.36719 -0.0955,0.15686 -0.14453,0.33591 -0.14453,0.53711 0,0.19906 0.0481,0.37634 0.14063,0.5332 0.094,0.15486 0.28052,0.28216 0.5625,0.38477 0.28037,0.10046 0.79693,0.15234 1.54883,0.15234 0.75175,0 1.28563,-0.0573 1.60351,-0.16992 0.2446,-0.0867 0.41426,-0.20837 0.50977,-0.36523 0.094,-0.15713 0.14257,-0.3361 0.14257,-0.53516 0,-0.2012 -0.0485,-0.37829 -0.14257,-0.53516 -0.0955,-0.15472 -0.28395,-0.28424 -0.56446,-0.38672 -0.28197,-0.1006 -0.79707,-0.15234 -1.54882,-0.15234 z m -3.16016,4.99023 h 1.14062 v 3.28907 c 0.11025,-0.0864 0.22357,-0.2012 0.33985,-0.33985 0.11641,-0.13891 0.35387,-0.47144 0.70898,-0.99414 0.35485,-0.52108 0.62895,-0.88265 0.81836,-1.08398 0.28493,-0.30154 0.55728,-0.5232 0.81836,-0.66211 0.26108,-0.13864 0.53608,-0.20899 0.82422,-0.20899 0.50702,0 0.92976,0.24381 1.27148,0.73047 0.33998,0.48666 0.51172,1.15701 0.51172,2.00977 0,0.77815 -0.1475,1.42623 -0.4414,1.94531 -0.29538,0.51895 -0.77941,0.82537 -1.45508,0.92383 l -0.12305,-1.64844 c 0.35807,-0.0322 0.61428,-0.15044 0.76953,-0.35351 0.15378,-0.20496 0.23242,-0.47821 0.23242,-0.82422 0,-0.35003 -0.0728,-0.6253 -0.2207,-0.82422 -0.14775,-0.19933 -0.35981,-0.29688 -0.63281,-0.29688 -0.24742,0 -0.49642,0.11448 -0.75,0.3418 -0.18365,0.16892 -0.53417,0.62477 -1.04883,1.37305 -0.63857,0.92496 -1.15078,1.54774 -1.53711,1.86133 -0.38646,0.316 -0.79549,0.50197 -1.22656,0.5664 z"
         style="fill:#000200;fill-rule:evenodd;stroke:none;stroke-width:0.27488014;stroke-linecap:butt;stroke-linejoin:miter;stroke-dasharray:none" />
      <path
         d="m 109.8486,670.0208 h 102.6905 v 23.582 H 109.8486 Z"
         style="fill:none;stroke:#000200;stroke-width:0.67327273;stroke-linecap:butt;stroke-linejoin:miter;stroke-dasharray:none"
         id="path348" />
      <path
         d="m 109.8486,670.0208 h 38.8502 v 23.582 h -38.8502 z m 28.3706,17.9858 c 1.5094,0 2.6803,-0.5561 3.5059,-1.668 0.8255,-1.1121 1.24,-2.6267 1.24,-4.5474 0,-1.9102 -0.418,-3.418 -1.2504,-4.5197 -0.8324,-1.1019 -1.9964,-1.6545 -3.4955,-1.6545 -1.4989,0 -2.663,0.5526 -3.4954,1.6545 -0.8324,1.1017 -1.2505,2.6095 -1.2505,4.5197 0,1.9207 0.4146,3.4353 1.24,4.5474 0.8255,1.1119 1.9964,1.668 3.5059,1.668 z m 0,1.5691 c -1.4163,0 -2.6492,-0.3137 -3.6994,-0.9381 -1.0465,-0.6276 -1.8615,-1.5417 -2.4385,-2.7424 -0.5767,-1.2043 -0.8634,-2.5655 -0.8634,-4.0835 0,-1.4667 0.2763,-2.8005 0.8255,-4.0014 0.5492,-1.2041 1.361,-2.132 2.4316,-2.7836 1.0743,-0.6515 2.321,-0.979 3.7442,-0.979 1.4231,0 2.67,0.3275 3.7441,0.979 1.0709,0.6516 1.8826,1.5795 2.4318,2.7836 0.5492,1.2009 0.8253,2.5347 0.8253,4.0014 0,1.4601 -0.2727,2.787 -0.8151,3.9809 -0.5422,1.1975 -1.3436,2.1252 -2.4074,2.7905 -1.0639,0.6618 -2.3211,0.9926 -3.7787,0.9926 z m -18.2027,-0.6481 v -2.0774 c 1.209,0.5458 2.0931,0.8733 2.6492,0.9858 0.5561,0.1126 1.0743,0.1706 1.5509,0.1706 0.86,0 1.5439,-0.232 2.0413,-0.6958 0.501,-0.4606 0.7495,-1.0165 0.7495,-1.6615 0,-0.4877 -0.1312,-0.9379 -0.3936,-1.3508 -0.266,-0.4058 -0.9292,-0.9005 -1.9792,-1.4872 l -1.0362,-0.5901 c -1.3851,-0.7711 -2.3143,-1.4771 -2.791,-2.1185 -0.4731,-0.6379 -0.7115,-1.3475 -0.7115,-2.1286 0,-0.6992 0.19,-1.3543 0.5664,-1.9684 0.3766,-0.614 0.8809,-1.0915 1.5164,-1.4394 0.6357,-0.3446 1.4334,-0.5186 2.3971,-0.5186 1.1639,0 2.3867,0.191 3.6785,0.5697 v 1.9205 c -1.1225,-0.4332 -1.8929,-0.6958 -2.3106,-0.7846 -0.418,-0.092 -0.8359,-0.1363 -1.2504,-0.1363 -0.8705,0 -1.5163,0.2217 -1.9342,0.6685 -0.418,0.4468 -0.6287,0.904 -0.6287,1.3679 0,0.3207 0.1001,0.6448 0.297,0.9756 0.1968,0.3309 0.4662,0.6141 0.7978,0.8495 0.3351,0.2353 0.7945,0.5185 1.3782,0.8426 l 1.0812,0.6004 c 1.3954,0.7811 2.328,1.4941 2.7978,2.1388 0.4662,0.6516 0.7012,1.4021 0.7012,2.248 0,1.153 -0.4457,2.1526 -1.3369,2.9985 -0.8946,0.8461 -2.2069,1.2689 -3.9445,1.2689 -0.5354,0 -1.0534,-0.0341 -1.5542,-0.1057 -0.5044,-0.0681 -1.2815,-0.2491 -2.3315,-0.5424 z m -5.0601,0.2797 v -14.791 h 2.1241 v 14.791 z"
         style="fill:#e30016;fill-rule:evenodd;stroke:#1b1918;stroke-width:0.67327273;stroke-linecap:butt;stroke-linejoin:miter;stroke-dasharray:none"
         id="path350" />
    </g>
  </g>
</svg>
