<?xml version="1.0" encoding="UTF-8" standalone="no"?>
<!-- Created with Inkscape (http://www.inkscape.org/) -->

<svg
   xmlns:dc="http://purl.org/dc/elements/1.1/"
   xmlns:cc="http://creativecommons.org/ns#"
   xmlns:rdf="http://www.w3.org/1999/02/22-rdf-syntax-ns#"
   xmlns:svg="http://www.w3.org/2000/svg"
   xmlns="http://www.w3.org/2000/svg"
   xmlns:sodipodi="http://sodipodi.sourceforge.net/DTD/sodipodi-0.dtd"
   xmlns:inkscape="http://www.inkscape.org/namespaces/inkscape"
   width="100"
   height="100"
   viewBox="0 0 26.458333 26.458334"
   version="1.1"
   id="svg8"
   inkscape:version="0.91 r13725"
   sodipodi:docname="search.svg"
   inkscape:export-filename="/home/luko/public_html/marecia/img/search-icon.png"
   inkscape:export-xdpi="100"
   inkscape:export-ydpi="100">
  <defs
     id="defs2" />
  <sodipodi:namedview
     id="base"
     pagecolor="#ffffff"
     bordercolor="#666666"
     borderopacity="1.0"
     inkscape:pageopacity="0.0"
     inkscape:pageshadow="2"
     inkscape:zoom="3.959798"
     inkscape:cx="-4.5023735"
     inkscape:cy="31.697638"
     inkscape:document-units="mm"
     inkscape:current-layer="layer1"
     showgrid="false"
     inkscape:snap-global="true"
     inkscape:snap-nodes="true"
     inkscape:object-paths="true"
     inkscape:snap-intersection-paths="true"
     inkscape:snap-smooth-nodes="true"
     inkscape:snap-midpoints="true"
     inkscape:window-width="1920"
     inkscape:window-height="1021"
     inkscape:window-x="0"
     inkscape:window-y="0"
     inkscape:window-maximized="1"
     units="px" />
  <metadata
     id="metadata5">
    <rdf:RDF>
      <cc:Work
         rdf:about="">
        <dc:format>image/svg+xml</dc:format>
        <dc:type
           rdf:resource="http://purl.org/dc/dcmitype/StillImage" />
        <dc:title />
      </cc:Work>
    </rdf:RDF>
  </metadata>
  <g
     inkscape:label="Layer 1"
     inkscape:groupmode="layer"
     id="layer1"
     transform="translate(0,-270.54165)">
    <path
       style="opacity:1;fill:#011c2e;fill-opacity:1;fill-rule:nonzero;stroke:#ffffff;stroke-width:0;stroke-miterlimit:4;stroke-dasharray:none;stroke-opacity:1"
       d="M 10.23943,270.54177 A 10.23952,10.260018 0 0 0 5e-7,280.80169 10.23952,10.260018 0 0 0 10.23943,291.06161 a 10.23952,10.260018 0 0 0 5.22269,-1.44865 l -0.0356,0.0346 c 0,0 6.79468,6.61379 7.19984,7.00221 0.405159,0.38841 2.0265,0.66627 3.09016,-0.36642 1.063659,-1.03269 0.78618,-2.61549 0.37966,-3.00233 -0.40652,-0.38683 -7.19751,-7.00353 -7.19751,-7.00353 l -0.009,0.009 a 10.23952,10.260018 0 0 0 1.58984,-5.48487 10.23952,10.260018 0 0 0 -10.23976,-10.25992 z m 0,4.48332 a 5.7651079,5.7766485 0 0 1 5.76505,5.7766 5.7651079,5.7766485 0 0 1 -5.76505,5.7766 5.7651079,5.7766485 0 0 1 -5.7650695,-5.7766 5.7651079,5.7766485 0 0 1 5.7650695,-5.7766 z"
       id="circle4521"
       inkscape:connector-curvature="0" />
  </g>
</svg>
